PathFileType	4	(X/Y/Z)	..\data\2014022\dynamic\2014022_C4_04.trc
DataRate	CameraRate	NumFrames	NumMarkers	Units	OrigDataRate	OrigDataStartFrame	OrigNumFrames
100.000000	100.000000	4	52	mm	100.000000	86	173
Frame#	Time	L_IAS			L_IPS			R_IPS			R_IAS			L_FTC			L_FLE			L_FME			L_FAX			L_TTC			L_FAL			L_TAM			L_FCC			L_FM1			L_FM2			L_FM5			R_FTC			R_FLE			R_FME			R_FAX			R_TTC			R_FAL			R_TAM			R_FCC			R_FM1			R_FM2			R_FM5			CV7			TV10			SXS			SJN			L_SIA			L_SRS			L_SAA			L_SAE			L_HLE			L_HME			L_UOA			L_RSP			L_UHE			L_HM2			L_HM5			R_SIA			R_SRS			R_SAA			R_SAE			R_HLE			R_HME			R_UOA			R_RSP			R_UHE			R_HM2			R_HM5			
		X1	Y1	Z1	X2	Y2	Z2	X3	Y3	Z3	X4	Y4	Z4	X5	Y5	Z5	X6	Y6	Z6	X7	Y7	Z7	X8	Y8	Z8	X9	Y9	Z9	X10	Y10	Z10	X11	Y11	Z11	X12	Y12	Z12	X13	Y13	Z13	X14	Y14	Z14	X15	Y15	Z15	X16	Y16	Z16	X17	Y17	Z17	X18	Y18	Z18	X19	Y19	Z19	X20	Y20	Z20	X21	Y21	Z21	X22	Y22	Z22	X23	Y23	Z23	X24	Y24	Z24	X25	Y25	Z25	X26	Y26	Z26	X27	Y27	Z27	X28	Y28	Z28	X29	Y29	Z29	X30	Y30	Z30	X31	Y31	Z31	X32	Y32	Z32	X33	Y33	Z33	X34	Y34	Z34	X35	Y35	Z35	X36	Y36	Z36	X37	Y37	Z37	X38	Y38	Z38	X39	Y39	Z39	X40	Y40	Z40	X41	Y41	Z41	X42	Y42	Z42	X43	Y43	Z43	X44	Y44	Z44	X45	Y45	Z45	X46	Y46	Z46	X47	Y47	Z47	X48	Y48	Z48	X49	Y49	Z49	X50	Y50	Z50	X51	Y51	Z51	X52	Y52	Z52	

87	0.86	-65.83832550048832	944.4527587890627	183.4399871826172	-256.6000061035157	963.728942871094	253.7246856689453	-254.9281311035157	971.0616455078127	362.7266235351562	-66.38407135009773	949.9675903320315	430.3426818847657	-144.2727355957032	879.3016357421877	119.2554779052735	-0.3407263755798539	479.4888305664064	162.1322021484375	-10.70165634155277	467.0229492187501	299.3085632324219	-44.74382781982425	451.647430419922	155.4550933837891	9.797925949096657	399.4312744140626	209.1422424316407	-286.0033264160157	213.8147430419922	175.8969116210938	-260.6936035156251	196.0669403076172	257.0307006835938	-344.6412048339844	194.6620483398438	224.828842163086	-224.5583038330079	59.33452606201173	245.8045959472657	-206.1320800781251	75.69519042968751	189.5429534912109	-245.8404846191407	94.3911819458008	145.4473266601562	-156.2667999267579	883.567565917969	489.1709594726564	-172.2459411621095	461.2713928222657	429.2680053710939	-169.8456268310547	465.6209411621095	292.4309387207032	-192.8999938964845	410.7306518554689	428.2903137207032	-127.3896179199219	398.1286010742189	376.8083801269532	-204.9046325683595	67.8780975341797	365.9639282226563	-191.9531250000001	76.16912841796876	280.0074462890626	-243.9462432861329	21.12610054016114	321.6259765625	-63.00899887084966	20.67971801757813	274.7704772949219	-50.78202819824224	34.11951446533204	335.0586242675782	-93.58385467529303	21.820068359375	389.0261535644532	-187.9689025878907	1443.100219726563	286.0092468261719	-273.7275695800782	1225.918334960938	293.7782592773438	-42.47937774658207	1148.212890625	290.0395812988282	-75.36653900146489	1365.6376953125	288.7675781250001	-282.6712646484376	1255.600708007813	206.5453491210938	-238.0992126464845	1396.668334960938	226.2781219482422	-203.2401885986329	1400.015991210938	155.7729949951172	-152.1993103027344	1381.2421875	107.8064804077149	-171.4854736328125	1062.65478515625	63.31900787353515	-171.8312377929688	1053.98046875	154.0308837890625	-185.7869110107422	1037.0341796875	101.5673599243164	-46.62703323364259	843.1374511718752	84.30943298339845	-112.9922943115235	842.0489501953127	42.2548713684082	-15.21394252777101	762.5510864257814	70.62538146972658	-117.745719909668	758.6432495117189	48.96133422851562	-282.0313720703126	1258.955200195313	379.2477722167969	-233.0086517333986	1398.39697265625	361.0358276367188	-199.7140960693361	1399.095703125	440.1846008300782	-152.4956207275391	1397.593505859375	472.7332153320314	-186.9842224121095	1082.040771484375	531.9250488281251	-178.6594390869141	1067.46728515625	448.524627685547	-197.3170166015626	1057.039794921875	499.7351684570314	-51.64338302612313	873.556823730469	563.2474975585939	-124.0504608154298	861.054138183594	574.9510498046876	-19.01853561401375	792.7419433593752	588.2653808593751	-117.826271057129	778.5471801757815	569.9302368164064	
88	0.87	-53.86045837402347	945.0310058593752	184.5134582519532	-245.2251892089845	964.0598754882815	253.3278961181641	-244.0811920166017	970.5919189453127	362.3920593261719	-55.91249847412116	949.465026855469	431.2847595214845	-132.0755767822266	880.1530761718752	119.2069854736328	19.91580390930174	482.7311096191407	163.3088531494141	9.404773712158168	470.2286987304689	299.9512939453126	-23.94178199768069	453.5941162109376	157.0293121337891	32.54563140869138	403.0458374023439	209.8618927001954	-255.6570281982423	205.0139770507813	176.3657379150391	-229.1863250732423	187.9428405761719	257.4107055664063	-313.4421386718751	182.2057647705078	225.4244537353516	-184.5833282470704	54.05602645874025	243.9602813720703	-167.5503234863282	72.57515716552736	187.9191589355469	-208.565155029297	89.14441680908205	144.2719268798828	-146.6351776123048	882.7988891601565	488.9857482910157	-166.2385406494141	461.1284179687501	428.7054748535157	-163.7946014404297	465.8507385253907	291.7947692871094	-187.4737091064454	410.8960266113282	427.7446899414064	-122.3240203857423	397.463836669922	376.1221313476563	-204.3914947509767	68.13307189941408	365.6528625488282	-191.3855438232422	76.20220184326173	279.5975952148438	-243.7998657226563	21.50765609741211	321.3930969238281	-62.74129867553716	20.41036224365235	274.5682983398438	-50.51003646850592	34.02460861206055	334.9613647460938	-93.49120330810553	22.00796508789063	388.8580627441407	-175.9912261962891	1442.990478515625	286.5214538574219	-262.0547180175782	1225.9189453125	295.0615844726562	-31.1804637908936	1147.981689453125	290.4559936523438	-63.52659606933599	1365.344116210938	289.0137634277344	-271.4294128417969	1255.561157226563	208.045883178711	-226.4418487548829	1396.560424804688	227.149642944336	-191.9232025146485	1399.646850585938	156.5032501220703	-141.1761169433594	1380.600952148438	108.2305908203125	-165.3248596191407	1062.586303710938	63.77965545654296	-164.9881286621094	1053.495483398438	154.3949432373047	-179.510986328125	1037.2802734375	102.1069717407227	-46.05325317382814	839.7097167968752	82.41381072998048	-112.8699264526367	840.7830200195315	41.07817077636718	-17.20878219604493	758.0877075195314	67.7255096435547	-120.1850204467774	757.6269531250001	47.37464523315429	-270.0796508789064	1259.333374023438	380.7215881347656	-220.8614044189454	1398.5908203125	361.8587341308594	-187.2442016601563	1399.4228515625	440.848358154297	-139.9046325683595	1397.981689453125	473.1715698242189	-172.5818176269532	1082.084106445313	533.1643066406251	-165.1941528320313	1067.60107421875	450.0196228027345	-182.9607238769532	1056.636962890625	501.2073059082032	-33.43907165527352	876.080261230469	563.5281982421876	-105.4683990478517	862.2073364257815	576.0534667968751	1.090839266776967	796.1599731445315	588.3000488281251	-97.54359436035166	779.6834106445315	570.9608764648439	
89	0.88	-41.88198471069339	945.4324340820315	185.5069885253907	-233.8393707275391	964.2036132812502	252.908432006836	-233.1955413818361	970.0051879882815	362.0247802734375	-45.44894409179693	948.8321533203127	432.1874084472657	-119.6853408813477	880.877136230469	119.1022109985352	39.45186233520506	485.7734375000001	164.4590606689453	28.9875793457031	473.2588806152345	300.5578308105469	-3.799366474151632	455.2109680175782	158.5504455566407	54.70226287841795	406.5110473632814	210.5999450683594	-224.567611694336	195.2948913574219	176.8906707763672	-196.8826599121095	179.1595306396485	257.8969726562501	-281.0563659667969	168.9305572509766	226.1069946289063	-143.9887237548829	48.77317810058595	242.2532806396485	-128.5850982666016	69.19385528564455	186.4421234130859	-170.824203491211	83.49620056152345	143.2696380615234	-136.8991851806641	881.946228027344	488.833221435547	-160.1917114257813	460.944305419922	428.138397216797	-157.6517486572266	466.0244445800782	291.1990661621094	-182.0088043212891	411.027557373047	427.2022705078126	-117.2350082397462	396.7710266113282	375.4326782226563	-203.8593292236329	68.38874816894533	365.3264770507813	-190.7561035156251	76.34230804443361	279.1785278320313	-243.6014862060548	21.87997245788575	321.1011352539062	-62.46731567382817	20.17540740966797	274.3623657226563	-50.24536895751959	33.96868896484376	334.8468627929688	-93.38747406005865	22.21866798400879	388.6472167968751	-164.0045318603516	1442.755615234375	287.0206298828126	-250.359115600586	1225.787841796875	296.2591857910156	-19.87834167480473	1147.641235351563	290.9405822753907	-51.67751693725591	1364.928466796875	289.2413940429688	-260.1396789550782	1255.387451171875	209.4806671142578	-214.7747039794923	1396.327392578125	228.001205444336	-180.6081695556641	1399.168579101563	157.2261199951172	-130.1680755615235	1379.880981445313	108.6421279907227	-159.3967437744141	1062.533935546875	64.25303649902344	-158.1261596679688	1053.048461914063	154.7487335205078	-173.3646392822266	1037.474243164063	102.6452865600586	-45.54293441772462	836.5426025390627	80.5319061279297	-112.7340164184571	839.6863403320315	39.99542999267577	-19.12644386291505	754.0620117187501	64.85166168212892	-122.3722839355469	756.8519287109376	45.92476654052734	-258.1222534179689	1259.579711914063	382.1134948730469	-208.7126922607423	1398.640380859375	362.6449279785157	-174.7711791992188	1399.61572265625	441.4809875488282	-127.3221435546876	1398.236083984375	473.5832824707032	-158.175994873047	1082.009033203125	534.3215332031251	-151.7305297851563	1067.596801757813	451.4893493652345	-168.549057006836	1056.1162109375	502.5975036621095	-15.35691642761238	878.5703125000002	563.8536987304689	-86.97663116455087	863.3129882812502	577.0860595703126	21.05593299865716	799.5537719726565	588.2758178710939	-77.31044769287118	780.797546386719	571.7647705078126	
90	0.89	-29.91673278808597	945.6339111328127	186.3904113769532	-222.4323883056641	964.1470947265627	252.5022735595703	-222.2473297119142	969.3015136718752	361.6552429199219	-34.95931625366217	948.0336914062502	433.0386962890626	-107.0979919433594	881.4590454101565	118.952262878418	58.21804809570312	488.5461730957032	165.5487213134766	47.96312713623044	476.0504760742189	301.1158447265626	15.65444087982176	456.4169006347657	159.9771423339844	76.20798492431639	409.760711669922	211.3333892822266	-192.7032928466798	184.822982788086	177.4950866699219	-163.7530517578126	169.89453125	258.4980163574219	-247.4445343017579	155.0295715332032	226.9084167480469	-102.787467956543	43.62837982177735	240.6999969482422	-89.24404907226567	65.68082427978517	185.10791015625	-132.6159210205079	77.57889556884767	142.4451599121094	-127.0318069458009	880.9973144531252	488.7260131835939	-154.1511230468751	460.7249145507814	427.5800781250001	-151.4513549804688	466.1386718750001	290.6562805175782	-176.547576904297	411.127410888672	426.6718139648439	-112.1512527465821	396.0533752441407	374.7582092285157	-203.314178466797	68.65574645996095	364.9783630371094	-190.086654663086	76.58264160156251	278.7466735839844	-243.3638458251954	22.25735855102539	320.7446594238281	-62.19108581542974	19.96238517761231	274.1528930664063	-49.99031448364263	33.93761062622071	334.7182312011719	-93.28012847900396	22.43767356872559	388.3916015625001	-152.0082244873047	1442.386474609375	287.5070800781251	-238.638641357422	1225.517333984375	297.3821411132812	-8.559441566467322	1147.169921875	291.4832763671876	-39.8171653747559	1364.38232421875	289.4489440917969	-248.7957916259766	1255.06005859375	210.8463287353516	-203.096420288086	1395.95751953125	228.8332824707032	-169.2929229736329	1398.572021484375	157.9409484863281	-119.1805801391602	1379.072021484375	109.0408401489258	-153.6391143798828	1062.478149414063	64.73982238769531	-151.2208709716797	1052.623291015625	155.088623046875	-167.3200378417969	1037.612670898438	103.1848373413086	-45.04268646240236	833.626647949219	78.65050506591798	-112.5449295043946	838.7365722656252	39.0158462524414	-20.90402984619142	750.4529418945314	62.01078033447267	-124.2633132934571	756.2725830078126	44.63568115234374	-246.156463623047	1259.678588867188	383.4226989746094	-196.5614013671876	1398.537841796875	363.3956604003907	-162.2919006347657	1399.662353515625	442.085418701172	-114.7443237304688	1398.339477539063	473.9701538085939	-143.7839660644532	1081.808227539063	535.4120483398439	-138.2783355712891	1067.437133789063	452.927215576172	-154.104217529297	1055.4775390625	503.9143371582032	2.582093477249077	880.9989013671877	564.2432861328126	-68.60346221923837	864.3389892578127	578.0488281250001	40.85307693481439	802.896179199219	588.2255249023439	-57.14785385131844	781.8662719726565	572.3369140625001	
